<svg xmlns="http://www.w3.org/2000/svg" viewBox="0 0 256 256" width="256" height="256">
  <defs>
    <linearGradient id="bgGrad" x1="0%" y1="0%" x2="100%" y2="100%">
      <stop offset="0%" stop-color="#1a1b2f"/>
      <stop offset="100%" stop-color="#0d0e1a"/>
    </linearGradient>
    <linearGradient id="chipGrad" x1="0%" y1="0%" x2="100%" y2="100%">
      <stop offset="0%" stop-color="#5b6df0"/>
      <stop offset="30%" stop-color="#4a5ee0"/>
      <stop offset="100%" stop-color="#2d3a8c"/>
    </linearGradient>
    <linearGradient id="accentGrad" x1="0%" y1="0%" x2="100%" y2="0%">
      <stop offset="0%" stop-color="#f0a040"/>
      <stop offset="100%" stop-color="#f0c060"/>
    </linearGradient>
    <linearGradient id="glowGrad" x1="50%" y1="0%" x2="50%" y2="100%">
      <stop offset="0%" stop-color="#5b6df0" stop-opacity="0.3"/>
      <stop offset="100%" stop-color="#5b6df0" stop-opacity="0"/>
    </linearGradient>
  </defs>

  <rect x="16" y="16" width="224" height="224" rx="48" fill="url(#bgGrad)" stroke="#2a2d45" stroke-width="2"/>

  <rect x="24" y="24" width="208" height="208" rx="40" fill="url(#glowGrad)" opacity="0.5"/>

  <g transform="translate(128,128)">
    <rect x="-64" y="-64" width="128" height="128" rx="16" fill="url(#chipGrad)" opacity="0.15" stroke="#4a5ee0" stroke-width="1.5"/>

    <rect x="-48" y="-48" width="96" height="96" rx="10" fill="url(#chipGrad)" stroke="#3b4dc0" stroke-width="1"/>

    <rect x="-24" y="-24" width="48" height="48" rx="6" fill="url(#accentGrad)" opacity="0.12" stroke="url(#accentGrad)" stroke-width="1"/>

    <line x1="-48" y1="-48" x2="-36" y2="-48" stroke="#5b6df0" stroke-width="2" stroke-linecap="round" opacity="0.6"/>
    <line x1="-48" y1="-32" x2="-36" y2="-32" stroke="#5b6df0" stroke-width="2" stroke-linecap="round" opacity="0.6"/>
    <line x1="-48" y1="-16" x2="-36" y2="-16" stroke="#5b6df0" stroke-width="2" stroke-linecap="round" opacity="0.6"/>
    <line x1="-48" y1="0"   x2="-36" y2="0"   stroke="#5b6df0" stroke-width="2" stroke-linecap="round" opacity="0.6"/>
    <line x1="-48" y1="16"  x2="-36" y2="16"  stroke="#5b6df0" stroke-width="2" stroke-linecap="round" opacity="0.6"/>
    <line x1="-48" y1="32"  x2="-36" y2="32"  stroke="#5b6df0" stroke-width="2" stroke-linecap="round" opacity="0.6"/>
    <line x1="-48" y1="48"  x2="-36" y2="48"  stroke="#5b6df0" stroke-width="2" stroke-linecap="round" opacity="0.6"/>

    <line x1="48" y1="-48" x2="36" y2="-48" stroke="#5b6df0" stroke-width="2" stroke-linecap="round" opacity="0.6"/>
    <line x1="48" y1="-32" x2="36" y2="-32" stroke="#5b6df0" stroke-width="2" stroke-linecap="round" opacity="0.6"/>
    <line x1="48" y1="-16" x2="36" y2="-16" stroke="#5b6df0" stroke-width="2" stroke-linecap="round" opacity="0.6"/>
    <line x1="48" y1="0"   x2="36" y2="0"   stroke="#5b6df0" stroke-width="2" stroke-linecap="round" opacity="0.6"/>
    <line x1="48" y1="16"  x2="36" y2="16"  stroke="#5b6df0" stroke-width="2" stroke-linecap="round" opacity="0.6"/>
    <line x1="48" y1="32"  x2="36" y2="32"  stroke="#5b6df0" stroke-width="2" stroke-linecap="round" opacity="0.6"/>
    <line x1="48" y1="48"  x2="36" y2="48"  stroke="#5b6df0" stroke-width="2" stroke-linecap="round" opacity="0.6"/>

    <line x1="-48" y1="-48" x2="-48" y2="-36" stroke="#5b6df0" stroke-width="2" stroke-linecap="round" opacity="0.6"/>
    <line x1="-32" y1="-48" x2="-32" y2="-36" stroke="#5b6df0" stroke-width="2" stroke-linecap="round" opacity="0.6"/>
    <line x1="-16" y1="-48" x2="-16" y2="-36" stroke="#5b6df0" stroke-width="2" stroke-linecap="round" opacity="0.6"/>
    <line x1="0"   y1="-48" x2="0"   y2="-36" stroke="#5b6df0" stroke-width="2" stroke-linecap="round" opacity="0.6"/>
    <line x1="16"  y1="-48" x2="16"  y2="-36" stroke="#5b6df0" stroke-width="2" stroke-linecap="round" opacity="0.6"/>
    <line x1="32"  y1="-48" x2="32"  y2="-36" stroke="#5b6df0" stroke-width="2" stroke-linecap="round" opacity="0.6"/>
    <line x1="48"  y1="-48" x2="48"  y2="-36" stroke="#5b6df0" stroke-width="2" stroke-linecap="round" opacity="0.6"/>

    <line x1="-48" y1="48" x2="-48" y2="36" stroke="#5b6df0" stroke-width="2" stroke-linecap="round" opacity="0.6"/>
    <line x1="-32" y1="48" x2="-32" y2="36" stroke="#5b6df0" stroke-width="2" stroke-linecap="round" opacity="0.6"/>
    <line x1="-16" y1="48" x2="-16" y2="36" stroke="#5b6df0" stroke-width="2" stroke-linecap="round" opacity="0.6"/>
    <line x1="0"   y1="48" x2="0"   y2="36" stroke="#5b6df0" stroke-width="2" stroke-linecap="round" opacity="0.6"/>
    <line x1="16"  y1="48" x2="16"  y2="36" stroke="#5b6df0" stroke-width="2" stroke-linecap="round" opacity="0.6"/>
    <line x1="32"  y1="48" x2="32"  y2="36" stroke="#5b6df0" stroke-width="2" stroke-linecap="round" opacity="0.6"/>
    <line x1="48"  y1="48" x2="48"  y2="36" stroke="#5b6df0" stroke-width="2" stroke-linecap="round" opacity="0.6"/>

    <rect x="-10" y="-10" width="8" height="4" rx="1" fill="#5b6df0" opacity="0.5"/>
    <rect x="-2"  y="-10" width="12" height="4" rx="1" fill="#5b6df0" opacity="0.35"/>
    <rect x="-10" y="-2"  width="14" height="4" rx="1" fill="#5b6df0" opacity="0.25"/>
    <rect x="-10" y="6"   width="10" height="4" rx="1" fill="#5b6df0" opacity="0.15"/>

    <circle cx="0" cy="-36" r="3" fill="url(#accentGrad)"/>
  </g>
</svg>
